<?xml version="1.0" encoding="UTF-8"?>
<svg id="triple-play-solid" xmlns="http://www.w3.org/2000/svg" viewBox="0 0 48 24">
  <!-- First play icon (original) -->
  <polygon points="22 11 22 13 21 13 21 14 20 14 20 15 18 15 18 16 16 16 16 17 15 17 15 18 13 18 13 19 11 19 11 20 10 20 10 21 8 21 8 22 6 22 6 23 3 23 3 22 2 22 2 2 3 2 3 1 6 1 6 2 8 2 8 3 10 3 10 4 11 4 11 5 13 5 13 6 15 6 15 7 16 7 16 8 18 8 18 9 20 9 20 10 21 10 21 11 22 11"/>
  
  <!-- Second play icon (+12 units right) -->
  <polygon points="34 11 34 13 33 13 33 14 32 14 32 15 30 15 30 16 28 16 28 17 27 17 27 18 25 18 25 19 23 19 23 20 22 20 22 21 20 21 20 22 18 22 18 23 15 23 15 22 14 22 14 2 15 2 15 1 18 1 18 2 20 2 20 3 22 3 22 4 23 4 23 5 25 5 25 6 27 6 27 7 28 7 28 8 30 8 30 9 32 9 32 10 33 10 33 11 34 11"/>
  
  <!-- Third play icon (+24 units right) -->
  <polygon points="46 11 46 13 45 13 45 14 44 14 44 15 42 15 42 16 40 16 40 17 39 17 39 18 37 18 37 19 35 19 35 20 34 20 34 21 32 21 32 22 30 22 30 23 27 23 27 22 26 22 26 2 27 2 27 1 30 1 30 2 32 2 32 3 34 3 34 4 35 4 35 5 37 5 37 6 39 6 39 7 40 7 40 8 42 8 42 9 44 9 44 10 45 10 45 11 46 11"/>
</svg>
